<?xml version="1.0" encoding="UTF-8" standalone="no"?>
<svg width="170px" height="585px" viewBox="0 0 170 585" version="1.1" xmlns="http://www.w3.org/2000/svg" xmlns:xlink="http://www.w3.org/1999/xlink">
    <!-- Generator: Sketch 44.1 (41455) - http://www.bohemiancoding.com/sketch -->
    <title>icons</title>
    <desc>Created with Sketch.</desc>
    <defs></defs>
    <g id="Pages" stroke="none" stroke-width="1" fill="none" fill-rule="evenodd">
        <g id="icons">
            <g id="logo" transform="translate(3.000000, 5.000000)" stroke="#4F3A4B">
                <path d="M3,13 L5.4727768,13 M8.77168284,13 L21,13" id="Line-Copy-3" stroke-width="2" stroke-linecap="round"></path>
                <path d="M40,8 L58.9326755,8 M61.5749587,8 L64,8" id="Line-Copy-7" stroke-width="2" stroke-linecap="round"></path>
                <path d="M41,15 L51,15" id="Line-Copy-6" stroke-width="2" stroke-linecap="round"></path>
                <g id="Group-2" stroke-width="1" fill-rule="evenodd">
                    <polygon id="Triangle-3-Copy-9" stroke-width="2" fill="#FFFFFF" points="0.584070796 46 33.2920354 0 66 46"></polygon>
                    <polygon id="Path-2-Copy-9" stroke-width="2" fill="#E1DEF4" points="32.9423883 0.582278481 37.8829823 20.1480437 32.9423883 26.7804604 26.0186293 24.7774152 23.5277771 39.4145268 15.9969574 45.7088608 0 45.7088608"></polygon>
                </g>
            </g>
            <g id="icon-Twitter" transform="translate(11.000000, 258.000000)" fill="#E1DEF4">
                <ellipse id="Oval-Copy" stroke="#171717" cx="17.0532787" cy="17" rx="17.0532787" ry="17"></ellipse>
                <path d="M26.3980819,9.83060645 C25.6382162,10.2785797 24.7986622,10.6046031 23.9017437,10.7795626 C23.1870914,10.0187497 22.1652713,9.54385965 21.0346567,9.54385965 C18.86668,9.54385965 17.1078834,11.2967505 17.1078834,13.4588873 C17.1078834,13.765959 17.1417934,14.063967 17.2090481,14.3507138 C13.9446494,14.1870154 11.0501518,12.6299583 9.11134992,10.2585293 C8.77338066,10.8386148 8.58009389,11.5120853 8.58009389,12.2289523 C8.58009389,13.586605 9.27355255,14.7852285 10.3275871,15.4875385 C9.68471081,15.4683122 9.07772254,15.2903314 8.54731426,14.99919 L8.54731426,15.0472558 C8.54731426,16.9448934 9.90145196,18.5277686 11.6998101,18.8862021 C11.3703184,18.9782138 11.0233064,19.0238076 10.664426,19.0238076 C10.4117968,19.0238076 10.1648193,19.0004614 9.92547152,18.9545929 C10.4256434,20.509178 11.874729,21.6416081 13.5945291,21.6720956 C12.250847,22.7226765 10.5556316,23.3491798 8.71601631,23.3491798 C8.39895819,23.3491798 8.08529107,23.3310521 7.77868852,23.2950715 C9.51742168,24.4041553 11.5828208,25.0526316 13.7999669,25.0526316 C21.0267444,25.0526316 24.9775372,19.0878038 24.9775372,13.913727 C24.9775372,13.7434368 24.973581,13.5731465 24.9673642,13.4061522 C25.734577,12.8540823 26.4011903,12.1652308 26.9262295,11.3796983 C26.2225979,11.6911647 25.4647103,11.9018302 24.6706521,11.9960392 C25.4819478,11.5120853 26.1047607,10.7446805 26.3980819,9.83060645 L26.3980819,9.83060645 Z" id="Stroke-181" stroke="#000000"></path>
            </g>
            <g id="icon-Linkedin" transform="translate(11.000000, 165.000000)">
                <g id="twitter-icon-copy" stroke="#171717" fill="#E1DEF4">
                    <ellipse id="Oval-Copy" cx="17.0532787" cy="17" rx="17.0532787" ry="17"></ellipse>
                </g>
                <g id="Group" transform="translate(9.000000, 9.000000)" stroke="#000000">
                    <path d="M2.00797101,0 C0.793826087,0 0,0.753571429 0,1.74809524 C0,2.72357143 0.77115942,3.49333333 1.96189855,3.49333333 L1.98530435,3.49333333 C3.22113043,3.49333333 3.99056522,2.72095238 3.99056522,1.7452381 C3.96691304,0.751666667 3.22113043,0 2.00797101,0 L2.00797101,0 Z" id="Stroke-171"></path>
                    <path d="M12.642087,4.52380952 C10.7582899,4.52380952 9.57814493,5.51 9.35985507,6.20071429 L9.35985507,4.62071429 L5.66666667,4.62071429 C5.71372464,5.45952381 5.66666667,14.6883333 5.66666667,14.6883333 L9.35985507,14.6883333 L9.35985507,9.24047619 C9.35985507,8.93761905 9.34482609,8.635 9.43968116,8.41761905 C9.69418841,7.81214286 10.239913,7.18380952 11.2204928,7.18380952 C12.5031304,7.18380952 13.0863043,8.115 13.0863043,9.47857143 L13.0863043,14.6883333 L16.8147246,14.6883333 L16.8147246,9.09047619 C16.8147246,5.97214286 14.9787246,4.52380952 12.642087,4.52380952 L12.642087,4.52380952 Z" id="Stroke-172"></path>
                    <polygon id="Stroke-173" points="0.246376812 14.8297619 3.53501449 14.8297619 3.53501449 4.76190476 0.246376812 4.76190476"></polygon>
                </g>
            </g>
            <g id="icon-Medium" transform="translate(11.000000, 211.000000)">
                <g id="twitter-icon-copy-2" stroke="#171717" fill="#E1DEF4">
                    <ellipse id="Oval-Copy" cx="17.0532787" cy="17" rx="17.0532787" ry="17"></ellipse>
                </g>
                <g id="Group-3" transform="translate(8.000000, 9.000000)" stroke="#000000">
                    <path d="M12.7676878,0.0179369754 C12.6716323,-0.0285392151 12.5932573,0.0184449119 12.5932573,0.122571896 L12.5932573,12.9037782 L18.3668823,15.7020005 C18.6545211,15.841683 18.88991,15.7004767 18.88991,15.3886036 L18.88991,3.08536555 C18.88991,3.02390523 18.8537573,2.96803221 18.797285,2.94034967 L12.7676878,0.0179369754" id="Stroke-174"></path>
                    <path d="M6.29647253,9.71660364 L12.5205559,0.0957782453 C12.577292,0.00866713414 12.7023753,-0.0253646119 12.7989586,0.0206036421 L18.8108753,2.88003221 C18.8858198,2.91558777 18.9130003,3.00447666 18.868667,3.07228618 L12.6234725,12.7258735 L6.29647253,9.71660364" id="Stroke-175"></path>
                    <path d="M0.408715587,0.0829274516 C0.0157850319,-0.10297731 -0.117214968,0.0346734833 0.112896143,0.389213166 L6.14354892,9.67124491 L12.5932573,12.7257211 L6.18550725,2.86311793 C6.15859059,2.82121317 6.11927114,2.78768936 6.07229892,2.76534015 L0.408715587,0.0829274516" id="Stroke-176"></path>
                    <path d="M6.29647253,15.3869782 C6.29647253,15.6998671 6.06081975,15.8418354 5.77344475,15.7016449 L0.348944754,13.0613909 C0.156833643,12.9681846 0.000347531859,12.7208195 0.000347531859,12.5120576 L0.000347531859,0.24589888 C0.000347531859,0.0373909437 0.156833643,-0.0573392151 0.348944754,0.0361211024 L6.21915309,2.89351793 C6.26665309,2.91662904 6.29647253,2.96361317 6.29647253,3.01567666 L6.29647253,15.3869782" id="Stroke-177"></path>
                </g>
            </g>
            <g id="icon-WhastApp" transform="translate(11.000000, 118.000000)">
                <g id="twitter-icon-copy-3" stroke="#171717" fill="#E1DEF4">
                    <ellipse id="Oval-Copy" cx="17.0532787" cy="17" rx="17.0532787" ry="17"></ellipse>
                </g>
                <path d="M22.4480991,20.0029596 C22.2434149,20.5822504 21.4287944,21.0622864 20.7797509,21.2022493 C20.3353916,21.2971588 19.7556434,21.3721716 17.8023381,20.5625824 C15.3049614,19.5279549 13.6956171,16.9896413 13.5709769,16.8249791 C13.4511395,16.6598596 12.5617349,15.4806952 12.5617349,14.2612802 C12.5617349,13.0420938 13.1812764,12.4472516 13.4310141,12.1924826 C13.635927,11.9825383 13.9755428,11.8878575 14.3002933,11.8878575 C14.4054941,11.8878575 14.5001749,11.8926602 14.5852504,11.8976915 C14.834988,11.9077542 14.9598569,11.9226195 15.1245191,12.3173514 C15.3296607,12.8120241 15.8291361,14.0314392 15.8888261,14.156308 C15.9489736,14.2811769 16.0088923,14.4513278 15.9238168,14.61599 C15.8440014,14.7859122 15.7737913,14.8611537 15.6491511,15.0059192 C15.5242823,15.1509134 15.4042161,15.2609169 15.2793473,15.4157452 C15.1645411,15.550448 15.0346409,15.6956709 15.1796352,15.9454086 C15.3246294,16.1903436 15.823876,17.0047354 16.5584524,17.6590389 C17.5073183,18.5036188 18.2766567,18.7737105 18.5517798,18.8885167 C18.7564641,18.9735922 19.0013991,18.9536955 19.1509673,18.7936072 C19.3407862,18.5886943 19.5756585,18.2488498 19.8153335,17.9142653 C19.985027,17.6743617 20.2000027,17.6441736 20.4248123,17.7292491 C20.6546533,17.8090645 21.869037,18.4087093 22.118546,18.5335782 C22.368055,18.6589044 22.5334033,18.7185945 22.5930933,18.8235666 C22.6530121,18.9285388 22.6530121,19.4229828 22.4480991,20.0029596 L22.4480991,20.0029596 Z M17.5025157,8 L17.4974843,8 L17.4974843,8 C12.8117012,8 9,11.812616 9,16.4997713 C9,18.3586246 9.59964485,20.0825463 10.6184922,21.4817177 L9.55962278,24.6398014 L12.8267953,23.5957973 C14.1706218,24.4852019 15.7737913,25 17.5025157,25 C22.1885275,25 26,21.1869266 26,16.5 C26,11.812616 22.1885275,8 17.5025157,8 L17.5025157,8 Z" id="Stroke-143" stroke="#000000"></path>
            </g>
            <g id="icon-GooglePlus" transform="translate(11.000000, 71.000000)">
                <ellipse id="Oval-Copy" stroke="#171717" fill="#E1DEF4" cx="17.0532787" cy="17" rx="17.0532787" ry="17"></ellipse>
                <polygon id="Stroke-178" stroke="#000000" points="26.2789043 16.069 26.2789043 13.5 24.4861277 13.5 24.4861277 16.069 21.9042553 16.069 21.9042553 17.904 24.4861277 17.904 24.4861277 20.54675 26.2789043 20.54675 26.2789043 17.904 28.7890851 17.904 28.7890851 16.069"></polygon>
                <path d="M13.2430426,15.94575 L13.2430426,18.882 C13.2430426,18.882 16.0257979,18.878 17.1589149,18.878 C16.5452553,20.7815 15.591,21.818 13.2430426,21.818 C10.8664574,21.818 9.01202128,19.84625 9.01202128,17.41375 C9.01202128,14.9815 10.8664574,13.0095 13.2430426,13.0095 C14.4994787,13.0095 15.3108404,13.4615 16.0549149,14.0915 C16.6509574,13.482 16.6012872,13.39475 18.1170851,11.92975 C16.8300638,10.73075 15.1199894,10 13.2430426,10 C9.24275532,10 6,13.31925 6,17.41375 C6,21.50825 9.24275532,24.8275 13.2430426,24.8275 C19.2223085,24.8275 20.6837872,19.4985 20.1993191,15.94575 L13.2430426,15.94575 L13.2430426,15.94575 Z" id="Stroke-179" stroke="#000000"></path>
            </g>
            <path d="M33.6,369.56 L8.4,381.8 L33.6,394.1 L33.6,397.28 L6,383.6 L6,380.06 L33.6,366.38 L33.6,369.56 Z M42.18,404 L39.3,404 L56.4,356 L59.28,356 L42.18,404 Z M92.64,380.06 L92.64,383.6 L65.04,397.28 L65.04,394.1 L90.24,381.8 L65.04,369.56 L65.04,366.38 L92.64,380.06 Z" id="&lt;/&gt;" fill="#FFFFFF"></path>
            <g id="icon-Facebook" transform="translate(11.000000, 305.000000)" fill="#E1DEF4">
                <ellipse id="Oval" stroke="#171717" cx="17.0532787" cy="17" rx="17.0532787" ry="17"></ellipse>
                <path d="M13.9820413,28.0350877 L18.0102307,28.0350877 L18.0102307,17.0055573 L21.0320329,17.0055573 L21.6297036,13.5594323 L18.0102307,13.5594323 L18.0102307,11.0618546 C18.0102307,10.2569203 18.5327892,9.41132976 19.278924,9.41132976 L21.3357095,9.41132976 L21.3357095,5.96491228 L18.8147536,5.96491228 L18.8147536,5.98070678 C14.8701853,6.12314973 14.0600877,8.40048203 13.9893765,10.7930556 L13.9820413,10.7930556 L13.9820413,13.5594323 L11.9672131,13.5594323 L11.9672131,17.0055573 L13.9820413,17.0055573 L13.9820413,28.0350877 L13.9820413,28.0350877 Z" id="Stroke-180" stroke="#000000"></path>
            </g>
            <path d="M19.767,434.828 L19.767,444.467 L16.527,444.467 L16.392,442.361 C15.3659949,443.945008 13.6650119,444.737 11.289,444.737 C9.6689919,444.737 8.23350626,444.381504 6.9825,443.6705 C5.73149374,442.959496 4.75500351,441.915507 4.053,440.5385 C3.35099649,439.161493 3,437.51001 3,435.584 C3,433.67599 3.3599964,432.033507 4.08,430.6565 C4.8000036,429.279493 5.82599334,428.222004 7.158,427.484 C8.49000666,426.745996 10.0649909,426.377 11.883,426.377 C13.9170102,426.377 15.5549938,426.736996 16.797,427.457 C18.0390062,428.177004 19.0199964,429.337992 19.74,430.94 L15.447,432.641 C15.2309989,431.758996 14.826003,431.102002 14.232,430.67 C13.637997,430.237998 12.9000044,430.022 12.018,430.022 C10.6499932,430.022 9.60150364,430.489995 8.8725,431.426 C8.14349636,432.362005 7.779,433.738991 7.779,435.557 C7.779,439.301019 9.23698542,441.173 12.153,441.173 C13.2510055,441.173 14.1374966,440.921003 14.8125,440.417 C15.4875034,439.912997 15.825,439.184005 15.825,438.23 L15.825,437.96 L11.397,437.96 L11.397,434.828 L19.767,434.828 Z M23.2365,428.8745 C22.8134979,428.523498 22.602,427.970004 22.602,427.214 C22.602,426.439996 22.8134979,425.877502 23.2365,425.5265 C23.6595021,425.175498 24.3389953,425 25.275,425 C26.2110047,425 26.8904979,425.175498 27.3135,425.5265 C27.7365021,425.877502 27.948,426.439996 27.948,427.214 C27.948,427.970004 27.7365021,428.523498 27.3135,428.8745 C26.8904979,429.225502 26.2110047,429.401 25.275,429.401 C24.3389953,429.401 23.6595021,429.225502 23.2365,428.8745 Z M27.57,444.467 L22.98,444.467 L22.98,430.967 L27.57,430.967 L27.57,444.467 Z M40.638,443.711 C40.1879978,444.017002 39.6165035,444.264499 38.9235,444.4535 C38.2304965,444.642501 37.5330035,444.737 36.831,444.737 C35.228992,444.737 34.0050042,444.395003 33.159,443.711 C32.3129958,443.026997 31.8810001,441.929008 31.863,440.417 L31.863,434.234 L29.541,434.234 L29.541,430.967 L31.863,430.967 L31.863,427.943 L36.453,426.674 L36.453,430.967 L40.503,430.967 L40.503,434.234 L36.453,434.234 L36.453,439.661 C36.453,440.867006 37.0469941,441.47 38.235,441.47 C38.9730037,441.47 39.6209972,441.272002 40.179,440.876 L40.638,443.711 Z M54.84,431.939 C55.6860042,432.767004 56.109,433.945992 56.109,435.476 L56.109,444.467 L51.519,444.467 L51.519,436.745 C51.519,435.034991 50.8800064,434.18 49.602,434.18 C48.8819964,434.18 48.2970022,434.440997 47.847,434.963 C47.3969977,435.485003 47.172,436.285995 47.172,437.366 L47.172,444.467 L42.582,444.467 L42.582,425.243 L47.172,425.243 L47.172,433.424 C47.568002,432.523996 48.1304964,431.844502 48.8595,431.3855 C49.5885036,430.926498 50.4479951,430.697 51.438,430.697 C52.8600071,430.697 53.9939958,431.110996 54.84,431.939 Z M72.768,430.967 L72.768,444.467 L68.664,444.467 L68.529,441.956 C67.6829958,443.810009 66.1260113,444.737 63.858,444.737 C62.4179928,444.737 61.2885041,444.354504 60.4695,443.5895 C59.6504959,442.824496 59.241,441.623008 59.241,439.985 L59.241,430.967 L63.831,430.967 L63.831,438.824 C63.831,439.706004 63.9839985,440.326998 64.29,440.687 C64.5960015,441.047002 65.0639968,441.227 65.694,441.227 C66.4500038,441.227 67.0529978,440.970503 67.503,440.4575 C67.9530023,439.944497 68.178,439.166005 68.178,438.122 L68.178,430.967 L72.768,430.967 Z M88.806,432.56 C89.7960049,433.802006 90.291,435.538989 90.291,437.771 C90.291,439.967011 89.8050049,441.676994 88.833,442.901 C87.8609951,444.125006 86.4930088,444.737 84.729,444.737 C83.6669947,444.737 82.7445039,444.453503 81.9615,443.8865 C81.1784961,443.319497 80.5980019,442.559005 80.22,441.605 L80.085,444.467 L76.062,444.467 L76.062,425.243 L80.652,425.243 L80.652,433.235 C81.0300019,432.442996 81.5654965,431.822002 82.2585,431.372 C82.9515035,430.921998 83.7749952,430.697 84.729,430.697 C86.4570086,430.697 87.815995,431.317994 88.806,432.56 Z M85.0125,440.471 C85.4535022,439.876997 85.674,438.959006 85.674,437.717 C85.674,436.474994 85.4535022,435.557003 85.0125,434.963 C84.5714978,434.368997 83.9460041,434.072 83.136,434.072 C82.343996,434.072 81.7320022,434.377997 81.3,434.99 C80.8679978,435.602003 80.652,436.465994 80.652,437.582 L80.652,437.852 C80.652,439.004006 80.8724978,439.876997 81.3135,440.471 C81.7545022,441.065003 82.3619961,441.362 83.136,441.362 C83.9460041,441.362 84.5714978,441.065003 85.0125,440.471 Z M104.5065,428.0375 C105.595505,428.964505 106.14,430.237992 106.14,431.858 C106.14,433.478008 105.595505,434.755995 104.5065,435.692 C103.417495,436.628005 101.946009,437.096 100.092,437.096 L95.529,437.096 L95.529,444.467 L94.179,444.467 L94.179,426.647 L100.092,426.647 C101.946009,426.647 103.417495,427.110495 104.5065,428.0375 Z M103.4805,434.801 C104.299504,434.116997 104.709,433.136006 104.709,431.858 C104.709,430.597994 104.299504,429.621503 103.4805,428.9285 C102.661496,428.235497 101.478008,427.889 99.93,427.889 L95.529,427.889 L95.529,435.827 L99.93,435.827 C101.478008,435.827 102.661496,435.485003 103.4805,434.801 Z M121.53,443.387 L121.449,444.467 C121.124998,444.647001 120.684003,444.737 120.126,444.737 C119.495997,444.737 118.983002,444.566002 118.587,444.224 C118.190998,443.881998 117.966,443.288004 117.912,442.442 C117.497998,443.162004 116.832005,443.724498 115.914,444.1295 C114.995995,444.534502 114.033005,444.737 113.025,444.737 C111.692993,444.737 110.626504,444.440003 109.8255,443.846 C109.024496,443.251997 108.624,442.406005 108.624,441.308 C108.624,439.21999 110.333983,437.870003 113.754,437.258 L117.885,436.529 L117.885,435.341 C117.885,434.260995 117.565503,433.415003 116.9265,432.803 C116.287497,432.190997 115.383006,431.885 114.213,431.885 C112.070989,431.885 110.631004,432.83899 109.893,434.747 L108.867,433.991 C109.263002,432.928995 109.919995,432.114503 110.838,431.5475 C111.756005,430.980497 112.880993,430.697 114.213,430.697 C115.779008,430.697 117.007496,431.079496 117.8985,431.8445 C118.789504,432.609504 119.235,433.720993 119.235,435.179 L119.235,442.145 C119.235,443.099005 119.648996,443.576 120.477,443.576 C120.927002,443.576 121.277999,443.513001 121.53,443.387 Z M115.374,443.1575 C116.094004,442.896499 116.692498,442.509503 117.1695,441.9965 C117.646502,441.483497 117.885,440.867004 117.885,440.147 L117.885,437.636 L114.186,438.311 C112.727993,438.581001 111.666003,438.958998 111,439.445 C110.333997,439.931002 110.001,440.551996 110.001,441.308 C110.001,442.028004 110.279997,442.581498 110.838,442.9685 C111.396003,443.355502 112.169995,443.549 113.16,443.549 C113.916004,443.549 114.653996,443.418501 115.374,443.1575 Z M134.382,443.927 C135.156004,444.485003 135.543,445.231995 135.543,446.168 C135.543,446.978004 135.268503,447.693497 134.7195,448.3145 C134.170497,448.935503 133.410005,449.416998 132.438,449.759 C131.465995,450.101002 130.359006,450.272 129.117,450.272 C127.08299,450.272 125.526005,449.943503 124.446,449.2865 C123.365995,448.629497 122.826,447.761005 122.826,446.681 C122.826,445.978996 123.041998,445.376003 123.474,444.872 C123.906002,444.367997 124.499996,444.008001 125.256,443.792 C124.715997,443.557999 124.288502,443.234002 123.9735,442.82 C123.658498,442.405998 123.501,441.947003 123.501,441.443 C123.501,440.794997 123.712498,440.246002 124.1355,439.796 C124.558502,439.345998 125.129996,439.022001 125.85,438.824 C125.111996,438.445998 124.545002,437.937503 124.149,437.2985 C123.752998,436.659497 123.555,435.926004 123.555,435.098 C123.555,433.765993 124.054495,432.699504 125.0535,431.8985 C126.052505,431.097496 127.379992,430.697 129.036,430.697 C130.188006,430.697 131.204996,430.903998 132.087,431.318 C132.195001,430.453996 132.554997,429.765503 133.167,429.2525 C133.779003,428.739497 134.543995,428.483 135.462,428.483 L135.786,429.671 C134.939996,429.671 134.274002,429.859998 133.788,430.238 C133.301998,430.616002 133.023,431.155996 132.951,431.858 C133.977005,432.686004 134.49,433.765993 134.49,435.098 C134.49,436.430007 133.990505,437.500996 132.9915,438.311 C131.992495,439.121004 130.674008,439.526 129.036,439.526 C128.477997,439.526 127.866003,439.463001 127.2,439.337 C126.443996,439.427 125.854502,439.647498 125.4315,439.9985 C125.008498,440.349502 124.797,440.767998 124.797,441.254 C124.797,441.830003 125.039998,442.279998 125.526,442.604 C126.012002,442.928002 126.740995,443.09 127.713,443.09 L131.196,443.09 C132.546007,443.09 133.607996,443.368997 134.382,443.927 Z M126.012,437.501 C126.750004,438.095003 127.757994,438.392 129.036,438.392 C130.296006,438.392 131.294996,438.095003 132.033,437.501 C132.771004,436.906997 133.14,436.106005 133.14,435.098 C133.14,434.089995 132.771004,433.293503 132.033,432.7085 C131.294996,432.123497 130.296006,431.831 129.036,431.831 C127.775994,431.831 126.772504,432.123497 126.0255,432.7085 C125.278496,433.293503 124.905,434.089995 124.905,435.098 C124.905,436.106005 125.273996,436.906997 126.012,437.501 Z M132.9375,448.3415 C133.864505,447.810497 134.328,447.140004 134.328,446.33 C134.328,445.681997 134.035503,445.173502 133.4505,444.8045 C132.865497,444.435498 132.015006,444.251 130.899,444.251 L127.416,444.251 C126.389995,444.251 125.575503,444.453498 124.9725,444.8585 C124.369497,445.263502 124.068,445.798997 124.068,446.465 C124.068,447.293004 124.517995,447.945498 125.418,448.4225 C126.318005,448.899502 127.595992,449.138 129.252,449.138 C130.782008,449.138 132.010495,448.872503 132.9375,448.3415 Z M149.367,438.284 L138.648,438.284 C138.738,439.940008 139.228496,441.231495 140.1195,442.1585 C141.010504,443.085505 142.202993,443.549 143.697,443.549 C144.759005,443.549 145.672496,443.333002 146.4375,442.901 C147.202504,442.468998 147.755998,441.857004 148.098,441.065 L149.232,441.659 C148.727997,442.649005 148.008005,443.409497 147.072,443.9405 C146.135995,444.471503 145.011007,444.737 143.697,444.737 C141.69899,444.737 140.137506,444.116006 139.0125,442.874 C137.887494,441.631994 137.325,439.913011 137.325,437.717 C137.325,435.520989 137.869495,433.802006 138.9585,432.56 C140.047505,431.317994 141.57299,430.697 143.535,430.697 C145.371009,430.697 146.810995,431.308994 147.855,432.533 C148.899005,433.757006 149.421,435.37699 149.421,437.393 C149.421,437.699002 149.403,437.995999 149.367,438.284 Z M140.079,433.2485 C139.232996,434.157505 138.756001,435.430992 138.648,437.069 L148.152,437.069 C148.062,435.448992 147.616504,434.180005 146.8155,433.262 C146.014496,432.343995 144.921007,431.885 143.535,431.885 C142.076993,431.885 140.925004,432.339495 140.079,433.2485 Z M154.119,443.927 C153.110995,443.386997 152.418002,442.604005 152.04,441.578 L153.147,440.849 C153.417001,441.749005 153.965996,442.423998 154.794,442.874 C155.622004,443.324002 156.638994,443.549 157.845,443.549 C159.069006,443.549 160.027497,443.315002 160.7205,442.847 C161.413503,442.378998 161.76,441.758004 161.76,440.984 C161.76,440.317997 161.463003,439.787002 160.869,439.391 C160.274997,438.994998 159.231007,438.662001 157.737,438.392 C155.846991,438.049998 154.515004,437.591003 153.741,437.015 C152.966996,436.438997 152.58,435.620005 152.58,434.558 C152.58,433.855996 152.795998,433.208003 153.228,432.614 C153.660002,432.019997 154.271996,431.552002 155.064,431.21 C155.856004,430.867998 156.755995,430.697 157.764,430.697 C159.186007,430.697 160.324496,430.966997 161.1795,431.507 C162.034504,432.047003 162.623998,432.874994 162.948,433.991 L161.787,434.666 C161.282997,432.811991 159.942011,431.885 157.764,431.885 C157.043996,431.885 156.391503,432.001999 155.8065,432.236 C155.221497,432.470001 154.762502,432.780498 154.4295,433.1675 C154.096498,433.554502 153.93,433.972998 153.93,434.423 C153.93,435.161004 154.235997,435.736998 154.848,436.151 C155.460003,436.565002 156.539992,436.906999 158.088,437.177 C159.924009,437.483002 161.219996,437.923997 161.976,438.5 C162.732004,439.076003 163.11,439.885995 163.11,440.93 C163.11,442.082006 162.619505,443.004497 161.6385,443.6975 C160.657495,444.390503 159.339008,444.737 157.683,444.737 C156.314993,444.737 155.127005,444.467003 154.119,443.927 Z" id="GithubPages" fill="#FFFFFF"></path>
            <g id="Group-2" transform="translate(3.000000, 471.272000)" fill="#FFFFFF">
                <polygon id="Triangle" points="20.6046417 -4.54747351e-13 19.8259277 21.1152266 0.5 21.1152266"></polygon>
                <polygon id="Triangle-Copy" transform="translate(70.588345, 10.706421) scale(-1, 1) translate(-70.588345, -10.706421) " points="80.6254883 -4.54747351e-12 80.3080371 21.4128418 60.5512011 21.4128418"></polygon>
                <polygon id="Triangle-2" points="40.3609396 -1.92912353e-12 59.199707 21.4476885 21.1175791 21.4476885"></polygon>
                <polygon id="Triangle-2-Copy" points="40.3609396 61.9682267 59.6043 22.1766071 21.1175791 22.1766071"></polygon>
                <polygon id="Triangle-3" points="20.5126953 21.2268066 21.5820312 -1.8189894e-12 39.2336426 -1.8189894e-12"></polygon>
                <polygon id="Triangle-3-Copy-2" points="39.831191 62.0864614 0.5 22.1766071 19.916555 22.1766071"></polygon>
                <polygon id="Triangle-3-Copy-3" transform="translate(60.774243, 41.950670) scale(-1, 1) translate(-60.774243, -41.950670) " points="80.6140103 61.7247335 40.9344754 22.1766071 60.3510305 22.1766071"></polygon>
                <polygon id="Triangle-3-Copy" transform="translate(50.855591, 10.721802) scale(-1, 1) translate(-50.855591, -10.721802) " points="41.5270996 21.4436035 42.0982805 -4.54747351e-13 60.184082 -4.54747351e-13"></polygon>
            </g>
            <g id="Menu-hamburguer" transform="translate(11.000000, 555.000000)" fill="#E75152">
                <rect id="Rectangle-4" x="0" y="0" width="31" height="3"></rect>
                <rect id="Rectangle-4-Copy" x="0" y="9" width="23" height="3"></rect>
                <rect id="Rectangle-4-Copy-2" x="0" y="18" width="31" height="3"></rect>
            </g>
        </g>
    </g>
</svg>