<?xml version="1.0" encoding="UTF-8" standalone="no"?>
<svg width="158px" height="291px" viewBox="0 0 158 291" version="1.1" xmlns="http://www.w3.org/2000/svg" xmlns:xlink="http://www.w3.org/1999/xlink">
    <!-- Generator: Sketch 46.2 (44496) - http://www.bohemiancoding.com/sketch -->
    <title>icons</title>
    <desc>Created with Sketch.</desc>
    <defs></defs>
    <g id="Page-1" stroke="none" stroke-width="1" fill="none" fill-rule="evenodd">
        <g id="icons">
            <g id="Group" transform="translate(7.000000, 5.000000)">
                <path d="M16.5465,33.2335 C15.4194944,32.5964968 14.555003,31.7005058 13.953,30.5455 C13.350997,29.3904942 13.05,28.0430077 13.05,26.503 C13.05,24.9769924 13.350997,23.6365058 13.953,22.4815 C14.555003,21.3264942 15.4194944,20.4340032 16.5465,19.804 C17.6735056,19.1739969 18.9929924,18.859 20.505,18.859 C21.499005,18.859 22.4474955,19.0094985 23.3505,19.3105 C24.2535045,19.6115015 24.9919971,20.0349973 25.566,20.581 L24.537,22.933 C23.8649966,22.4289975 23.2105032,22.0615012 22.5735,21.8305 C21.9364968,21.5994988 21.2680035,21.484 20.568,21.484 C19.2239933,21.484 18.1950036,21.9109957 17.481,22.765 C16.7669964,23.6190043 16.41,24.8649918 16.41,26.503 C16.41,28.1550083 16.7669964,29.4114957 17.481,30.2725 C18.1950036,31.1335043 19.2239933,31.564 20.568,31.564 C21.2680035,31.564 21.9364968,31.4485012 22.5735,31.2175 C23.2105032,30.9864988 23.8649966,30.6190025 24.537,30.115 L25.566,32.467 C24.9919971,33.0130027 24.2535045,33.4364985 23.3505,33.7375 C22.4474955,34.0385015 21.499005,34.189 20.505,34.189 C18.9929924,34.189 17.6735056,33.8705032 16.5465,33.2335 Z M30.8685,33.2545 C29.7694945,32.6314969 28.922503,31.7390058 28.3275,30.577 C27.732497,29.4149942 27.435,28.0570078 27.435,26.503 C27.435,24.9489922 27.732497,23.5980057 28.3275,22.45 C28.922503,21.3019943 29.7694945,20.4165031 30.8685,19.7935 C31.9675055,19.1704969 33.2589926,18.859 34.743,18.859 C36.2270074,18.859 37.5149945,19.1704969 38.607,19.7935 C39.6990055,20.4165031 40.5389971,21.3019943 41.127,22.45 C41.7150029,23.5980057 42.009,24.9489922 42.009,26.503 C42.009,28.0570078 41.7150029,29.4149942 41.127,30.577 C40.5389971,31.7390058 39.6990055,32.6314969 38.607,33.2545 C37.5149945,33.8775031 36.2270074,34.189 34.743,34.189 C33.2589926,34.189 31.9675055,33.8775031 30.8685,33.2545 Z M37.6935,30.304 C38.4005035,29.4219956 38.754,28.1550083 38.754,26.503 C38.754,24.8509917 38.4005035,23.5910043 37.6935,22.723 C36.9864965,21.8549957 36.0030063,21.421 34.743,21.421 C33.4829937,21.421 32.4995035,21.8549957 31.7925,22.723 C31.0854965,23.5910043 30.732,24.8509917 30.732,26.503 C30.732,28.1690083 31.0854965,29.4394956 31.7925,30.3145 C32.4995035,31.1895044 33.4829937,31.627 34.743,31.627 C36.0030063,31.627 36.9864965,31.1860044 37.6935,30.304 Z M56.835,19.048 L59.418,19.048 L59.418,34 L56.52,34 L56.52,25.831 L53.076,34 L50.955,34 L47.49,25.936 L47.49,34 L44.613,34 L44.613,19.048 L47.217,19.048 L52.047,30.073 L56.835,19.048 Z M65.4345,33.2545 C64.3354945,32.6314969 63.488503,31.7390058 62.8935,30.577 C62.298497,29.4149942 62.001,28.0570078 62.001,26.503 C62.001,24.9489922 62.298497,23.5980057 62.8935,22.45 C63.488503,21.3019943 64.3354945,20.4165031 65.4345,19.7935 C66.5335055,19.1704969 67.8249926,18.859 69.309,18.859 C70.7930074,18.859 72.0809945,19.1704969 73.173,19.7935 C74.2650055,20.4165031 75.1049971,21.3019943 75.693,22.45 C76.2810029,23.5980057 76.575,24.9489922 76.575,26.503 C76.575,28.0570078 76.2810029,29.4149942 75.693,30.577 C75.1049971,31.7390058 74.2650055,32.6314969 73.173,33.2545 C72.0809945,33.8775031 70.7930074,34.189 69.309,34.189 C67.8249926,34.189 66.5335055,33.8775031 65.4345,33.2545 Z M72.2595,30.304 C72.9665035,29.4219956 73.32,28.1550083 73.32,26.503 C73.32,24.8509917 72.9665035,23.5910043 72.2595,22.723 C71.5524965,21.8549957 70.5690063,21.421 69.309,21.421 C68.0489937,21.421 67.0655035,21.8549957 66.3585,22.723 C65.6514965,23.5910043 65.298,24.8509917 65.298,26.503 C65.298,28.1690083 65.6514965,29.4394956 66.3585,30.3145 C67.0655035,31.1895044 68.0489937,31.627 69.309,31.627 C70.5690063,31.627 71.5524965,31.1860044 72.2595,30.304 Z M24.453,39.048 L27.75,39.048 L21.03,54 L18.405,54 L11.685,39.048 L15.087,39.048 L19.749,49.905 L24.453,39.048 Z M32.9185,53.2545 C31.8194945,52.6314969 30.972503,51.7390058 30.3775,50.577 C29.782497,49.4149942 29.485,48.0570078 29.485,46.503 C29.485,44.9489922 29.782497,43.5980057 30.3775,42.45 C30.972503,41.3019943 31.8194945,40.4165031 32.9185,39.7935 C34.0175055,39.1704969 35.3089926,38.859 36.793,38.859 C38.2770074,38.859 39.5649945,39.1704969 40.657,39.7935 C41.7490055,40.4165031 42.5889971,41.3019943 43.177,42.45 C43.7650029,43.5980057 44.059,44.9489922 44.059,46.503 C44.059,48.0570078 43.7650029,49.4149942 43.177,50.577 C42.5889971,51.7390058 41.7490055,52.6314969 40.657,53.2545 C39.5649945,53.8775031 38.2770074,54.189 36.793,54.189 C35.3089926,54.189 34.0175055,53.8775031 32.9185,53.2545 Z M39.7435,50.304 C40.4505035,49.4219956 40.804,48.1550083 40.804,46.503 C40.804,44.8509917 40.4505035,43.5910043 39.7435,42.723 C39.0364965,41.8549957 38.0530063,41.421 36.793,41.421 C35.5329937,41.421 34.5495035,41.8549957 33.8425,42.723 C33.1354965,43.5910043 32.782,44.8509917 32.782,46.503 C32.782,48.1690083 33.1354965,49.4394956 33.8425,50.3145 C34.5495035,51.1895044 35.5329937,51.627 36.793,51.627 C38.0530063,51.627 39.0364965,51.1860044 39.7435,50.304 Z M50.6765,53.2335 C49.5494944,52.5964968 48.685003,51.7005058 48.083,50.5455 C47.480997,49.3904942 47.18,48.0430077 47.18,46.503 C47.18,44.9769924 47.480997,43.6365058 48.083,42.4815 C48.685003,41.3264942 49.5494944,40.4340031 50.6765,39.804 C51.8035056,39.1739968 53.1229924,38.859 54.635,38.859 C55.629005,38.859 56.5774955,39.0094985 57.4805,39.3105 C58.3835045,39.6115015 59.1219971,40.0349973 59.696,40.581 L58.667,42.933 C57.9949966,42.4289975 57.3405032,42.0615012 56.7035,41.8305 C56.0664968,41.5994988 55.3980035,41.484 54.698,41.484 C53.3539933,41.484 52.3250036,41.9109957 51.611,42.765 C50.8969964,43.6190043 50.54,44.8649918 50.54,46.503 C50.54,48.1550083 50.8969964,49.4114957 51.611,50.2725 C52.3250036,51.1335043 53.3539933,51.564 54.698,51.564 C55.3980035,51.564 56.0664968,51.4485012 56.7035,51.2175 C57.3405032,50.9864988 57.9949966,50.6190025 58.667,50.115 L59.696,52.467 C59.1219971,53.0130027 58.3835045,53.4364985 57.4805,53.7375 C56.5774955,54.0385015 55.629005,54.189 54.635,54.189 C53.1229924,54.189 51.8035056,53.8705032 50.6765,53.2335 Z M64.006,54 L64.006,39.048 L74.317,39.048 L74.317,41.589 L67.198,41.589 L67.198,45.117 L73.876,45.117 L73.876,47.679 L67.198,47.679 L67.198,51.459 L74.317,51.459 L74.317,54 L64.006,54 Z M68.185,38.767 L65.791,38.767 L68.584,35.47 L70.411,35.47 L73.204,38.767 L70.81,38.767 L69.508,36.961 L68.185,38.767 Z M13.491,59.048 L19.266,59.048 C20.9040082,59.048 22.3109941,59.3419971 23.487,59.93 C24.6630059,60.5180029 25.5624969,61.3719944 26.1855,62.492 C26.8085031,63.6120056 27.12,64.9489922 27.12,66.503 C27.12,68.0710078 26.8120031,69.4149944 26.196,70.535 C25.5799969,71.6550056 24.6840059,72.512497 23.508,73.1075 C22.3319941,73.702503 20.9180083,74 19.266,74 L13.491,74 L13.491,59.048 Z M19.056,71.354 C22.248016,71.354 23.844,69.7370162 23.844,66.503 C23.844,63.296984 22.248016,61.694 19.056,61.694 L16.767,61.694 L16.767,71.354 L19.056,71.354 Z M29.782,74 L29.782,59.048 L40.093,59.048 L40.093,61.589 L32.974,61.589 L32.974,65.117 L39.652,65.117 L39.652,67.679 L32.974,67.679 L32.974,71.459 L40.093,71.459 L40.093,74 L29.782,74 Z M44.2145,73.7375 C43.1714948,73.4364985 42.3070034,73.0130027 41.621,72.467 L42.671,70.115 C44.1130072,71.123005 45.7229911,71.627 47.501,71.627 C48.4530048,71.627 49.1844974,71.4765015 49.6955,71.1755 C50.2065026,70.8744985 50.462,70.4510027 50.462,69.905 C50.462,69.4289976 50.2275023,69.0545014 49.7585,68.7815 C49.2894977,68.5084986 48.4670059,68.2460013 47.291,67.994 C45.9749934,67.7279987 44.9285039,67.4025019 44.1515,67.0175 C43.3744961,66.6324981 42.8075018,66.1635028 42.4505,65.6105 C42.0934982,65.0574972 41.915,64.3680041 41.915,63.542 C41.915,62.6459955 42.1634975,61.8410036 42.6605,61.127 C43.1575025,60.4129964 43.8539955,59.856502 44.75,59.4575 C45.6460045,59.058498 46.6819941,58.859 47.858,58.859 C48.9220053,58.859 49.9439951,59.0129985 50.924,59.321 C51.9040049,59.6290015 52.6879971,60.0489973 53.276,60.581 L52.226,62.933 C50.9099934,61.924995 49.4610079,61.421 47.879,61.421 C47.0389958,61.421 46.3670025,61.5889983 45.863,61.925 C45.3589975,62.2610017 45.107,62.7159971 45.107,63.29 C45.107,63.6260017 45.2014991,63.9059989 45.3905,64.13 C45.5795009,64.3540011 45.8979978,64.5534991 46.346,64.7285 C46.7940022,64.9035009 47.4309959,65.0749992 48.257,65.243 C50.1750096,65.6630021 51.5574958,66.2089966 52.4045,66.881 C53.2515042,67.5530034 53.675,68.4699942 53.675,69.632 C53.675,71.032007 53.1290055,72.1414959 52.037,72.9605 C50.9449945,73.7795041 49.4260097,74.189 47.48,74.189 C46.3459943,74.189 45.2575052,74.0385015 44.2145,73.7375 Z M56.148,74 L56.148,59.048 L59.424,59.048 L59.424,74 L56.148,74 Z M75.358,65.747 L75.358,73.076 C74.6299964,73.4260018 73.7795049,73.698999 72.8065,73.895 C71.8334951,74.091001 70.8360051,74.189 69.814,74.189 C68.2319921,74.189 66.8600058,73.8810031 65.698,73.265 C64.5359942,72.6489969 63.6435031,71.7670057 63.0205,70.619 C62.3974969,69.4709943 62.086,68.099008 62.086,66.503 C62.086,64.9489922 62.3974969,63.5980057 63.0205,62.45 C63.6435031,61.3019943 64.5254943,60.4165031 65.6665,59.7935 C66.8075057,59.1704969 68.1409924,58.859 69.667,58.859 C70.7450054,58.859 71.7494953,59.0059985 72.6805,59.3 C73.6115047,59.5940015 74.377997,60.0069973 74.98,60.539 L73.93,62.891 C73.2299965,62.3869975 72.5510033,62.0230011 71.893,61.799 C71.2349967,61.5749989 70.5210038,61.463 69.751,61.463 C66.8669856,61.463 65.425,63.1429832 65.425,66.503 C65.425,69.9330172 66.929985,71.648 69.94,71.648 C70.7660041,71.648 71.5919959,71.5430011 72.418,71.333 L72.418,68.036 L69.478,68.036 L69.478,65.747 L75.358,65.747 Z M88.142,0.50694636 L91.229,0.50694636 L91.229,74 L88.793,74 L81.338,64.466 L81.338,74 L78.272,74 L78.272,59.048 L80.687,59.048 L88.142,68.561 L88.142,0.50694636 Z" id="COMO-VOCÊ-DESIGN" fill="#171717"></path>
                <path d="M0,91 L0,83.4414062 M144,8 L144,0.44140625 M0,78.0358073 L0,2 L90.2890827,2" id="Rectangle-2-Copy-3" stroke="#171717" stroke-width="3"></path>
            </g>
            <g id="Group-2" transform="translate(8.000000, 115.000000)" stroke="#171717" stroke-width="3" stroke-linecap="square">
                <path d="M0,1.5 L34.7046574,1.5" id="Line"></path>
                <path d="M0,11.5 L34.7046574,11.5" id="Line"></path>
                <path d="M0,21.5 L34.7046574,21.5" id="Line"></path>
            </g>
            <path d="M25.5,191 C15.2827321,191 7,182.717268 7,172.5 C7,162.282732 15.2827321,154 25.5,154 C35.7172679,154 44,162.282732 44,172.5 C44,182.717268 35.7172679,191 25.5,191 Z M38,178 L25.5,166 L13,178 L13,178" id="Combined-Shape" stroke="#171717" stroke-width="3"></path>
            <g id="Group-4" transform="translate(8.000000, 206.000000)" stroke="#171717" stroke-width="2">
                <path d="M20.7346542,12.7945082 C20.5776598,8.46238769 17.1166556,5 12.8701079,5 C8.62356013,5 5.16255595,8.46238769 5.00556153,12.7945082 L5,12.7945082 L5,29 L20.7417728,29 L20.7417728,28.988717 C20.8703599,28.9951455 20.9997571,28.9983971 21.1298921,28.9983971 C25.4764327,28.9983971 29,25.371033 29,20.8964527 C29,16.4218723 25.4764327,12.7945082 21.1298921,12.7945082 C20.9997571,12.7945082 20.8703599,12.7977598 20.7417728,12.8041883 L20.7417728,12.7945082 L20.7346546,12.7945082 Z" id="Combined-Shape" transform="translate(17.000000, 17.000000) rotate(-45.000000) translate(-17.000000, -17.000000) "></path>
            </g>
            <g id="Group-3" transform="translate(9.000000, 247.000000)" fill="#171717">
                <path d="M20.7346542,13.469737 C20.5776598,9.31812154 17.1166556,6 12.8701079,6 C8.62356013,6 5.16255595,9.31812154 5.00556153,13.469737 L5,13.469737 L5,29 L20.7417728,29 L20.7417728,28.9891871 C20.8703599,28.9953478 20.9997571,28.9984639 21.1298921,28.9984639 C25.4764327,28.9984639 29,25.52224 29,21.2341005 C29,16.945961 25.4764327,13.469737 21.1298921,13.469737 C20.9997571,13.469737 20.8703599,13.4728531 20.7417728,13.4790138 L20.7417728,13.469737 L20.7346546,13.469737 Z" id="Combined-Shape-Copy" transform="translate(17.000000, 17.500000) rotate(-45.000000) translate(-17.000000, -17.500000) "></path>
            </g>
        </g>
    </g>
</svg>