<?xml version="1.0" encoding="UTF-8" standalone="no"?>
<svg width="158px" height="202px" viewBox="0 0 158 202" version="1.1" xmlns="http://www.w3.org/2000/svg" xmlns:xlink="http://www.w3.org/1999/xlink">
    <!-- Generator: Sketch 46.2 (44496) - http://www.bohemiancoding.com/sketch -->
    <title>icons</title>
    <desc>Created with Sketch.</desc>
    <defs></defs>
    <g id="Page-1" stroke="none" stroke-width="1" fill="none" fill-rule="evenodd">
        <g id="icons">
            <g id="Group" transform="translate(7.000000, 7.000000)">
                <path d="M16.5465,31.2335 C15.4194944,30.5964968 14.555003,29.7005058 13.953,28.5455 C13.350997,27.3904942 13.05,26.0430077 13.05,24.503 C13.05,22.9769924 13.350997,21.6365058 13.953,20.4815 C14.555003,19.3264942 15.4194944,18.4340032 16.5465,17.804 C17.6735056,17.1739969 18.9929924,16.859 20.505,16.859 C21.499005,16.859 22.4474955,17.0094985 23.3505,17.3105 C24.2535045,17.6115015 24.9919971,18.0349973 25.566,18.581 L24.537,20.933 C23.8649966,20.4289975 23.2105032,20.0615012 22.5735,19.8305 C21.9364968,19.5994988 21.2680035,19.484 20.568,19.484 C19.2239933,19.484 18.1950036,19.9109957 17.481,20.765 C16.7669964,21.6190043 16.41,22.8649918 16.41,24.503 C16.41,26.1550083 16.7669964,27.4114957 17.481,28.2725 C18.1950036,29.1335043 19.2239933,29.564 20.568,29.564 C21.2680035,29.564 21.9364968,29.4485012 22.5735,29.2175 C23.2105032,28.9864988 23.8649966,28.6190025 24.537,28.115 L25.566,30.467 C24.9919971,31.0130027 24.2535045,31.4364985 23.3505,31.7375 C22.4474955,32.0385015 21.499005,32.189 20.505,32.189 C18.9929924,32.189 17.6735056,31.8705032 16.5465,31.2335 Z M30.8685,31.2545 C29.7694945,30.6314969 28.922503,29.7390058 28.3275,28.577 C27.732497,27.4149942 27.435,26.0570078 27.435,24.503 C27.435,22.9489922 27.732497,21.5980057 28.3275,20.45 C28.922503,19.3019943 29.7694945,18.4165031 30.8685,17.7935 C31.9675055,17.1704969 33.2589926,16.859 34.743,16.859 C36.2270074,16.859 37.5149945,17.1704969 38.607,17.7935 C39.6990055,18.4165031 40.5389971,19.3019943 41.127,20.45 C41.7150029,21.5980057 42.009,22.9489922 42.009,24.503 C42.009,26.0570078 41.7150029,27.4149942 41.127,28.577 C40.5389971,29.7390058 39.6990055,30.6314969 38.607,31.2545 C37.5149945,31.8775031 36.2270074,32.189 34.743,32.189 C33.2589926,32.189 31.9675055,31.8775031 30.8685,31.2545 Z M37.6935,28.304 C38.4005035,27.4219956 38.754,26.1550083 38.754,24.503 C38.754,22.8509917 38.4005035,21.5910043 37.6935,20.723 C36.9864965,19.8549957 36.0030063,19.421 34.743,19.421 C33.4829937,19.421 32.4995035,19.8549957 31.7925,20.723 C31.0854965,21.5910043 30.732,22.8509917 30.732,24.503 C30.732,26.1690083 31.0854965,27.4394956 31.7925,28.3145 C32.4995035,29.1895044 33.4829937,29.627 34.743,29.627 C36.0030063,29.627 36.9864965,29.1860044 37.6935,28.304 Z M56.835,17.048 L59.418,17.048 L59.418,32 L56.52,32 L56.52,23.831 L53.076,32 L50.955,32 L47.49,23.936 L47.49,32 L44.613,32 L44.613,17.048 L47.217,17.048 L52.047,28.073 L56.835,17.048 Z M65.4345,31.2545 C64.3354945,30.6314969 63.488503,29.7390058 62.8935,28.577 C62.298497,27.4149942 62.001,26.0570078 62.001,24.503 C62.001,22.9489922 62.298497,21.5980057 62.8935,20.45 C63.488503,19.3019943 64.3354945,18.4165031 65.4345,17.7935 C66.5335055,17.1704969 67.8249926,16.859 69.309,16.859 C70.7930074,16.859 72.0809945,17.1704969 73.173,17.7935 C74.2650055,18.4165031 75.1049971,19.3019943 75.693,20.45 C76.2810029,21.5980057 76.575,22.9489922 76.575,24.503 C76.575,26.0570078 76.2810029,27.4149942 75.693,28.577 C75.1049971,29.7390058 74.2650055,30.6314969 73.173,31.2545 C72.0809945,31.8775031 70.7930074,32.189 69.309,32.189 C67.8249926,32.189 66.5335055,31.8775031 65.4345,31.2545 Z M72.2595,28.304 C72.9665035,27.4219956 73.32,26.1550083 73.32,24.503 C73.32,22.8509917 72.9665035,21.5910043 72.2595,20.723 C71.5524965,19.8549957 70.5690063,19.421 69.309,19.421 C68.0489937,19.421 67.0655035,19.8549957 66.3585,20.723 C65.6514965,21.5910043 65.298,22.8509917 65.298,24.503 C65.298,26.1690083 65.6514965,27.4394956 66.3585,28.3145 C67.0655035,29.1895044 68.0489937,29.627 69.309,29.627 C70.5690063,29.627 71.5524965,29.1860044 72.2595,28.304 Z M24.453,37.048 L27.75,37.048 L21.03,52 L18.405,52 L11.685,37.048 L15.087,37.048 L19.749,47.905 L24.453,37.048 Z M31.9185,51.2545 C30.8194945,50.6314969 29.972503,49.7390058 29.3775,48.577 C28.782497,47.4149942 28.485,46.0570078 28.485,44.503 C28.485,42.9489922 28.782497,41.5980057 29.3775,40.45 C29.972503,39.3019943 30.8194945,38.4165031 31.9185,37.7935 C33.0175055,37.1704969 34.3089926,36.859 35.793,36.859 C37.2770074,36.859 38.5649945,37.1704969 39.657,37.7935 C40.7490055,38.4165031 41.5889971,39.3019943 42.177,40.45 C42.7650029,41.5980057 43.059,42.9489922 43.059,44.503 C43.059,46.0570078 42.7650029,47.4149942 42.177,48.577 C41.5889971,49.7390058 40.7490055,50.6314969 39.657,51.2545 C38.5649945,51.8775031 37.2770074,52.189 35.793,52.189 C34.3089926,52.189 33.0175055,51.8775031 31.9185,51.2545 Z M38.7435,48.304 C39.4505035,47.4219956 39.804,46.1550083 39.804,44.503 C39.804,42.8509917 39.4505035,41.5910043 38.7435,40.723 C38.0364965,39.8549957 37.0530063,39.421 35.793,39.421 C34.5329937,39.421 33.5495035,39.8549957 32.8425,40.723 C32.1354965,41.5910043 31.782,42.8509917 31.782,44.503 C31.782,46.1690083 32.1354965,47.4394956 32.8425,48.3145 C33.5495035,49.1895044 34.5329937,49.627 35.793,49.627 C37.0530063,49.627 38.0364965,49.1860044 38.7435,48.304 Z M48.6765,51.2335 C47.5494944,50.5964968 46.685003,49.7005058 46.083,48.5455 C45.480997,47.3904942 45.18,46.0430077 45.18,44.503 C45.18,42.9769924 45.480997,41.6365058 46.083,40.4815 C46.685003,39.3264942 47.5494944,38.4340032 48.6765,37.804 C49.8035056,37.1739968 51.1229924,36.859 52.635,36.859 C53.629005,36.859 54.5774955,37.0094985 55.4805,37.3105 C56.3835045,37.6115015 57.1219971,38.0349973 57.696,38.581 L56.667,40.933 C55.9949966,40.4289975 55.3405032,40.0615012 54.7035,39.8305 C54.0664968,39.5994988 53.3980035,39.484 52.698,39.484 C51.3539933,39.484 50.3250036,39.9109957 49.611,40.765 C48.8969964,41.6190043 48.54,42.8649918 48.54,44.503 C48.54,46.1550083 48.8969964,47.4114957 49.611,48.2725 C50.3250036,49.1335043 51.3539933,49.564 52.698,49.564 C53.3980035,49.564 54.0664968,49.4485012 54.7035,49.2175 C55.3405032,48.9864988 55.9949966,48.6190025 56.667,48.115 L57.696,50.467 C57.1219971,51.0130027 56.3835045,51.4364985 55.4805,51.7375 C54.5774955,52.0385015 53.629005,52.189 52.635,52.189 C51.1229924,52.189 49.8035056,51.8705032 48.6765,51.2335 Z M60.006,52 L60.006,37.048 L70.317,37.048 L70.317,39.589 L63.198,39.589 L63.198,43.117 L69.876,43.117 L69.876,45.679 L63.198,45.679 L63.198,49.459 L70.317,49.459 L70.317,52 L60.006,52 Z M64.185,35.767 L61.791,35.767 L64.584,32.47 L66.411,32.47 L69.204,35.767 L66.81,35.767 L65.508,33.961 L64.185,35.767 Z M13.491,57.048 L19.266,57.048 C20.9040082,57.048 22.3109941,57.3419971 23.487,57.93 C24.6630059,58.5180029 25.5624969,59.3719944 26.1855,60.492 C26.8085031,61.6120056 27.12,62.9489922 27.12,64.503 C27.12,66.0710078 26.8120031,67.4149944 26.196,68.535 C25.5799969,69.6550056 24.6840059,70.512497 23.508,71.1075 C22.3319941,71.702503 20.9180083,72 19.266,72 L13.491,72 L13.491,57.048 Z M19.056,69.354 C22.248016,69.354 23.844,67.7370162 23.844,64.503 C23.844,61.296984 22.248016,59.694 19.056,59.694 L16.767,59.694 L16.767,69.354 L19.056,69.354 Z M29.782,72 L29.782,57.048 L40.093,57.048 L40.093,59.589 L32.974,59.589 L32.974,63.117 L39.652,63.117 L39.652,65.679 L32.974,65.679 L32.974,69.459 L40.093,69.459 L40.093,72 L29.782,72 Z M44.2145,71.7375 C43.1714948,71.4364985 42.3070034,71.0130027 41.621,70.467 L42.671,68.115 C44.1130072,69.123005 45.7229911,69.627 47.501,69.627 C48.4530048,69.627 49.1844974,69.4765015 49.6955,69.1755 C50.2065026,68.8744985 50.462,68.4510027 50.462,67.905 C50.462,67.4289976 50.2275023,67.0545014 49.7585,66.7815 C49.2894977,66.5084986 48.4670059,66.2460013 47.291,65.994 C45.9749934,65.7279987 44.9285039,65.4025019 44.1515,65.0175 C43.3744961,64.6324981 42.8075018,64.1635028 42.4505,63.6105 C42.0934982,63.0574972 41.915,62.3680041 41.915,61.542 C41.915,60.6459955 42.1634975,59.8410036 42.6605,59.127 C43.1575025,58.4129964 43.8539955,57.856502 44.75,57.4575 C45.6460045,57.058498 46.6819941,56.859 47.858,56.859 C48.9220053,56.859 49.9439951,57.0129985 50.924,57.321 C51.9040049,57.6290015 52.6879971,58.0489973 53.276,58.581 L52.226,60.933 C50.9099934,59.924995 49.4610079,59.421 47.879,59.421 C47.0389958,59.421 46.3670025,59.5889983 45.863,59.925 C45.3589975,60.2610017 45.107,60.7159971 45.107,61.29 C45.107,61.6260017 45.2014991,61.9059989 45.3905,62.13 C45.5795009,62.3540011 45.8979978,62.5534991 46.346,62.7285 C46.7940022,62.9035009 47.4309959,63.0749992 48.257,63.243 C50.1750096,63.6630021 51.5574958,64.2089966 52.4045,64.881 C53.2515042,65.5530034 53.675,66.4699942 53.675,67.632 C53.675,69.032007 53.1290055,70.1414959 52.037,70.9605 C50.9449945,71.7795041 49.4260097,72.189 47.48,72.189 C46.3459943,72.189 45.2575052,72.0385015 44.2145,71.7375 Z M56.148,72 L56.148,57.048 L59.424,57.048 L59.424,72 L56.148,72 Z M75.358,63.747 L75.358,71.076 C74.6299964,71.4260018 73.7795049,71.698999 72.8065,71.895 C71.8334951,72.091001 70.8360051,72.189 69.814,72.189 C68.2319921,72.189 66.8600058,71.8810031 65.698,71.265 C64.5359942,70.6489969 63.6435031,69.7670057 63.0205,68.619 C62.3974969,67.4709943 62.086,66.099008 62.086,64.503 C62.086,62.9489922 62.3974969,61.5980057 63.0205,60.45 C63.6435031,59.3019943 64.5254943,58.4165031 65.6665,57.7935 C66.8075057,57.1704969 68.1409924,56.859 69.667,56.859 C70.7450054,56.859 71.7494953,57.0059985 72.6805,57.3 C73.6115047,57.5940015 74.377997,58.0069973 74.98,58.539 L73.93,60.891 C73.2299965,60.3869975 72.5510033,60.0230011 71.893,59.799 C71.2349967,59.5749989 70.5210038,59.463 69.751,59.463 C66.8669856,59.463 65.425,61.1429832 65.425,64.503 C65.425,67.9330172 66.929985,69.648 69.94,69.648 C70.7660041,69.648 71.5919959,69.5430011 72.418,69.333 L72.418,66.036 L69.478,66.036 L69.478,63.747 L75.358,63.747 Z M88.142,0.048 L91.229,0.048 L91.229,72 L88.793,72 L81.338,62.466 L81.338,72 L78.272,72 L78.272,57.048 L80.687,57.048 L88.142,66.561 L88.142,0.048 Z" id="COMO-VOCÊ-DESIGN" fill="#171717"></path>
                <rect id="Rectangle-2-Copy-3" stroke="#171717" stroke-width="3" x="0" y="0" width="144.001999" height="89"></rect>
                <path d="M116.228,47.486 C117.701341,47.486 119.004661,47.7296642 120.138,48.217 C121.271339,48.7043358 122.15533,49.3899956 122.79,50.274 C123.42467,51.1580044 123.742,52.166661 123.742,53.3 C123.742,54.5013393 123.447336,55.5269957 122.858,56.377 C122.268664,57.2270042 121.407339,58.1846613 120.274,59.25 C119.389996,60.0886709 118.727002,60.7913305 118.285,61.358 C117.842998,61.9246695 117.565334,62.5479966 117.452,63.228 L117.282,64.35 L114.256,64.35 L114.256,62.65 C114.256,61.4713274 114.465665,60.4966705 114.885,59.726 C115.304335,58.9553295 115.921996,58.0940048 116.738,57.142 C117.327336,56.4619966 117.769332,55.8783358 118.064,55.391 C118.358668,54.9036642 118.506,54.3653363 118.506,53.776 C118.506,53.0959966 118.273669,52.5746685 117.809,52.212 C117.344331,51.8493315 116.681338,51.668 115.82,51.668 C114.187992,51.668 112.590008,52.1553285 111.026,53.13 L111.026,48.88 C112.522007,47.950662 114.25599,47.486 116.228,47.486 Z M113.066,72 L113.066,66.526 L118.608,66.526 L118.608,72 L113.066,72 Z" id="?" fill="#222222"></path>
            </g>
            <g id="Group-2" transform="translate(7.000000, 115.000000)" stroke="#171717" stroke-width="3" stroke-linecap="square">
                <path d="M0,1.5 L34.7046574,1.5" id="Line"></path>
                <path d="M0,11.5 L34.7046574,11.5" id="Line"></path>
                <path d="M0,21.5 L34.7046574,21.5" id="Line"></path>
            </g>
            <path d="M24.5,191 C14.2827321,191 6,182.717268 6,172.5 C6,162.282732 14.2827321,154 24.5,154 C34.7172679,154 43,162.282732 43,172.5 C43,182.717268 34.7172679,191 24.5,191 Z M37,178 L24.5,166 L12,178 L12,178" id="Combined-Shape" stroke="#171717" stroke-width="3"></path>
        </g>
    </g>
</svg>